<?xml version="1.0" encoding="utf-8"?>
<!-- Generator: Adobe Illustrator 18.0.0, SVG Export Plug-In . SVG Version: 6.00 Build 0)  -->
<!DOCTYPE svg PUBLIC "-//W3C//DTD SVG 1.1//EN" "http://www.w3.org/Graphics/SVG/1.1/DTD/svg11.dtd">
<svg version="1.1" id="Layer_1" xmlns="http://www.w3.org/2000/svg" xmlns:xlink="http://www.w3.org/1999/xlink" x="0px" y="0px"
	 viewBox="0 0 64 64" enable-background="new 0 0 64 64" xml:space="preserve">
<g id="XMLID_8_">
	<g>
		<g>
			<path fill="#586077" d="M20,22h3c0,1.1,0.9,2,2,2s2-0.9,2-2h8l0.1,0.2C29.8,24.5,26,29.8,26,36c0,8.3,6.7,15,15,15H20v-2V22z"/>
		</g>
		<g>
			<path fill="#9199B5" d="M20,49v2v2c0,2.2-1.9,4-4.1,4H13H5c-2.2,0-4-1.8-4-4v-4H20z"/>
		</g>
		<g>
			<polygon fill="#586077" points="20,22 20,49 1,49 1,19 20,19 			"/>
		</g>
		<g>
			<path fill="#9199B5" d="M63,51v2c0,2.2-1.8,4-4,4H15.9c2.2,0,4.1-1.8,4.1-4v-2h21H63z"/>
		</g>
		<g>
			<path fill="#586077" d="M8,8h5c1.1,0,2,0.9,2,2v2H6v-2C6,8.9,6.9,8,8,8z"/>
		</g>
		<g>
			<path fill="#9199B5" d="M20,16v3H1v-3c0-2.2,1.8-4,4-4h1h9h0.9C18.1,12,20,13.8,20,16z"/>
		</g>
		<g>
			<path fill="#FCDA4F" d="M25,20c1.1,0,2,0.9,2,2s-0.9,2-2,2s-2-0.9-2-2S23.9,20,25,20z"/>
		</g>
		<g>
			<path fill="#586077" d="M50.5,8.2L54,16H28l3.5-7.8c0.3-0.7,1-1.2,1.8-1.2h15.4C49.5,7,50.2,7.5,50.5,8.2z"/>
		</g>
		<g>
			<path fill="#586077" d="M63,22v29H41c8.3,0,15-6.7,15-15c0-6.2-3.8-11.5-9.1-13.8L47,22H63z"/>
		</g>
		<g>
			<path fill="#9199B5" d="M63,20v2H47l-0.1,0.2C45.1,21.4,43.1,21,41,21s-4.1,0.4-5.9,1.2L35,22h-8c0-1.1-0.9-2-2-2s-2,0.9-2,2h-3
				v-3v-3h8h26h5C61.2,16,63,17.8,63,20z"/>
		</g>
		<g>
			<path fill="#9199B5" d="M46.9,22.2C52.2,24.5,56,29.8,56,36c0,8.3-6.7,15-15,15s-15-6.7-15-15c0-6.2,3.8-11.5,9.1-13.8
				c1.8-0.8,3.8-1.2,5.9-1.2S45.1,21.4,46.9,22.2z M52,36c0-6.1-4.9-11-11-11s-11,4.9-11,11s4.9,11,11,11S52,42.1,52,36z"/>
		</g>
		<g>
			<path fill="#62C3F4" d="M41,25c6.1,0,11,4.9,11,11s-4.9,11-11,11s-11-4.9-11-11S34.9,25,41,25z"/>
		</g>
	</g>
	<g>
		<g>
			<path fill="#2C2C3D" d="M15,13c-0.6,0-1-0.4-1-1v-2c0-0.6-0.4-1-1-1H8c-0.6,0-1,0.4-1,1v2c0,0.6-0.4,1-1,1s-1-0.4-1-1v-2
				c0-1.7,1.3-3,3-3h5c1.7,0,3,1.3,3,3v2C16,12.6,15.6,13,15,13z"/>
		</g>
		<g>
			<path fill="#2C2C3D" d="M15.9,58c-0.6,0-1-0.4-1-1s0.4-1,1-1c1.7,0,3.1-1.4,3.1-3V16c0-1.6-1.4-3-3.1-3H5c-1.7,0-3,1.3-3,3v37
				c0,1.7,1.3,3,3,3h8c0.6,0,1,0.4,1,1s-0.4,1-1,1H5c-2.8,0-5-2.2-5-5V16c0-2.8,2.2-5,5-5h10.9c2.8,0,5.1,2.2,5.1,5v37
				C21,55.8,18.7,58,15.9,58z"/>
		</g>
		<g>
			<path fill="#2C2C3D" d="M41,52c-8.8,0-16-7.2-16-16c0-6.4,3.8-12.2,9.7-14.7c4-1.7,8.6-1.7,12.6,0C53.2,23.8,57,29.6,57,36
				C57,44.8,49.8,52,41,52z M41,22c-1.9,0-3.8,0.4-5.5,1.1C30.3,25.3,27,30.4,27,36c0,7.7,6.3,14,14,14s14-6.3,14-14
				c0-5.6-3.3-10.7-8.5-12.9C44.8,22.4,42.9,22,41,22z"/>
		</g>
		<g>
			<path fill="#2C2C3D" d="M41,48c-6.6,0-12-5.4-12-12s5.4-12,12-12s12,5.4,12,12S47.6,48,41,48z M41,26c-5.5,0-10,4.5-10,10
				s4.5,10,10,10s10-4.5,10-10S46.5,26,41,26z"/>
		</g>
		<g>
			<path fill="#FFFFFF" d="M34,37c-0.6,0-1-0.4-1-1c0-4.4,3.6-8,8-8c0.6,0,1,0.4,1,1s-0.4,1-1,1c-3.3,0-6,2.7-6,6
				C35,36.6,34.6,37,34,37z"/>
		</g>
		<g>
			<path fill="#2C2C3D" d="M59,58H13c-0.6,0-1-0.4-1-1s0.4-1,1-1h46c1.7,0,3-1.3,3-3V20c0-1.7-1.3-3-3-3h-5c-0.4,0-0.8-0.2-0.9-0.6
				l-3.5-7.8C49.5,8.2,49.1,8,48.7,8H33.3c-0.4,0-0.8,0.2-0.9,0.6l-3.5,7.8C28.8,16.8,28.4,17,28,17h-8c-0.6,0-1-0.4-1-1s0.4-1,1-1
				h7.3l3.2-7.2C31,6.7,32.1,6,33.3,6h15.4c1.2,0,2.3,0.7,2.7,1.8l3.2,7.2H59c2.8,0,5,2.2,5,5v33C64,55.8,61.8,58,59,58z"/>
		</g>
		<g>
			<path fill="#2C2C3D" d="M25,25c-1.7,0-3-1.3-3-3s1.3-3,3-3s3,1.3,3,3S26.7,25,25,25z M25,21c-0.6,0-1,0.4-1,1s0.4,1,1,1
				s1-0.4,1-1S25.6,21,25,21z"/>
		</g>
		<g>
			<path fill="#2C2C3D" d="M20,20H1c-0.6,0-1-0.4-1-1s0.4-1,1-1h19c0.6,0,1,0.4,1,1S20.6,20,20,20z"/>
		</g>
		<g>
			<path fill="#2C2C3D" d="M23,23h-3c-0.6,0-1-0.4-1-1s0.4-1,1-1h3c0.6,0,1,0.4,1,1S23.6,23,23,23z"/>
		</g>
		<g>
			<path fill="#2C2C3D" d="M35,23h-8c-0.6,0-1-0.4-1-1s0.4-1,1-1h8c0.6,0,1,0.4,1,1S35.6,23,35,23z"/>
		</g>
		<g>
			<path fill="#2C2C3D" d="M63,23H47c-0.6,0-1-0.4-1-1s0.4-1,1-1h16c0.6,0,1,0.4,1,1S63.6,23,63,23z"/>
		</g>
		<g>
			<path fill="#2C2C3D" d="M54,17H28c-0.6,0-1-0.4-1-1s0.4-1,1-1h26c0.6,0,1,0.4,1,1S54.6,17,54,17z"/>
		</g>
		<g>
			<path fill="#2C2C3D" d="M20,50H1c-0.6,0-1-0.4-1-1s0.4-1,1-1h19c0.6,0,1,0.4,1,1S20.6,50,20,50z"/>
		</g>
		<g>
			<path fill="#2C2C3D" d="M63,52H20c-0.6,0-1-0.4-1-1s0.4-1,1-1h43c0.6,0,1,0.4,1,1S63.6,52,63,52z"/>
		</g>
	</g>
</g>
</svg>
