<?xml version="1.0" encoding="utf-8"?><svg version="1.1" id="Layer_1" xmlns="http://www.w3.org/2000/svg" xmlns:xlink="http://www.w3.org/1999/xlink" x="0px" y="0px" viewBox="0 0 110.13 122.88" style="enable-background:new 0 0 110.13 122.88" xml:space="preserve"><style type="text/css"><![CDATA[
	.st0{fill-rule:evenodd;clip-rule:evenodd;}
]]></style><g><path class="st0" d="M83.79,26.27c-0.26,1.8-0.55,3.66-0.81,5.4l0.3,3.33c0.96,0.1,1.67,0.66,2.16,1.53 c0.59,1.07,0.76,2.63,0.61,4.35c-0.15,1.63-0.58,3.42-1.21,5.03c-1.11,2.85-2.89,5.2-4.97,5.47c-0.22,0.73-0.45,1.48-0.66,2.2 c-1.07,3.6-1.9,6.43-4.09,9.2c-2.43,3.08-5.58,5.44-8.91,7.04c-3.66,1.76-7.56,2.63-11.03,2.56c-3.27-0.07-7-0.98-10.52-2.69 c-3.21-1.55-6.27-3.77-8.69-6.6c-2.67-3.13-3.79-6.44-5.23-10.75c-0.17-0.51-0.35-1.04-0.51-1.53c-1.83-0.02-3.37-1.58-4.46-3.74 c-0.85-1.68-1.44-3.75-1.65-5.66c-0.22-2-0.04-3.89,0.69-5.08c0.51-0.84,1.24-1.37,2.2-1.44l0.29-2.97 c-0.38-2.3-0.82-4.71-1.15-7.02C21.61-6.9,89.04-10.14,83.79,26.27L83.79,26.27L83.79,26.27z M80.2,90.75 c-0.01-0.08-0.02-0.17-0.02-0.26c0-0.09,0-0.17,0.02-0.26v-5.6c-4.64-0.37-9.42,0.06-13.59,1.4c-3.9,1.25-7.27,3.32-9.46,6.27 v27.11c3.4-1.93,6.88-3.51,10.45-4.59c4.07-1.23,8.26-1.81,12.59-1.52V90.75L80.2,90.75L80.2,90.75z M53.15,119.09V92.25 c-2.1-3.14-5.49-5.24-9.33-6.48c-4.35-1.41-9.23-1.73-13.48-1.21l-0.23,28.86c4.64-0.14,9.19,0.36,13.46,1.54 C46.97,115.89,50.19,117.27,53.15,119.09L53.15,119.09L53.15,119.09z M84.81,119.02c-4.18-0.83-8.33-1.34-12.46-1.36 c-5.36-0.03-10.72,2.93-16.1,4.94c-0.33,0.19-0.73,0.29-1.14,0.28c-0.4,0.01-0.8-0.1-1.14-0.28c-5.37-2.02-10.74-4.97-16.1-4.94 c-4.16,0.02-8.35,0.54-12.56,1.38c0-5.91,0.15-6.65,0.34-12.02H0c2.19-8.16,1.59-13.44,5.67-21.1c1.66-3.11,3.78-5.05,7.89-7.63 c6.45-4.04,15.15-7.3,23.68-10.6c-1.31,6.82,1.18,11.44,5.38,14.18c0.89,0.21,1.76,0.45,2.62,0.72c1.65,0.54,3.24,1.21,4.71,2.02 c3.89,0.68,8.13,0.48,11.96-0.49c1.05-0.48,2.15-0.91,3.29-1.27c0.47-0.15,0.95-0.29,1.44-0.43c5.94-2.88,9.49-8.02,6.25-14.74 c8.53,3.3,17.23,6.56,23.68,10.6c4.1,2.57,6.23,4.51,7.89,7.63c4.09,7.66,3.49,12.94,5.67,21.1H84.6 C84.72,112.38,84.81,113.07,84.81,119.02L84.81,119.02z M47.89,61.39c-0.45-0.36-0.52-1.01-0.17-1.46 c0.36-0.45,1.01-0.52,1.46-0.17c2.15,1.72,4.16,2.56,6.03,2.56c1.83-0.01,3.59-0.84,5.28-2.49c0.41-0.4,1.07-0.39,1.47,0.02 c0.4,0.41,0.39,1.07-0.02,1.47c-2.08,2.03-4.33,3.07-6.72,3.07C52.86,64.41,50.42,63.41,47.89,61.39L47.89,61.39L47.89,61.39z M52.05,54.82c-0.42-0.39-0.45-1.04-0.07-1.47c0.39-0.42,1.04-0.45,1.47-0.07c0.53,0.48,1.03,0.71,1.5,0.71 c0.47-0.01,0.98-0.25,1.53-0.72c0.44-0.38,1.09-0.33,1.46,0.11c0.38,0.44,0.33,1.09-0.11,1.46c-0.92,0.79-1.88,1.22-2.87,1.23 C53.95,56.08,52.98,55.67,52.05,54.82L52.05,54.82L52.05,54.82z M45.68,45.8c0.02,0.12,0.04,0.25,0.04,0.38 c0,1.05-0.85,1.9-1.9,1.9c-1.05,0-1.9-0.85-1.9-1.9c0-0.27,0.06-0.53,0.16-0.77c-0.98,0.07-1.97,0.29-2.96,0.68 c-0.48,0.19-1-0.11-1.17-0.65c-0.16-0.54,0.09-1.14,0.57-1.33c1.44-0.57,2.89-0.82,4.34-0.81c1.44,0.01,2.88,0.29,4.31,0.81 c0.48,0.17,0.75,0.76,0.59,1.3c-0.15,0.55-0.67,0.85-1.15,0.68C46.31,45.99,46,45.89,45.68,45.8L45.68,45.8L45.68,45.8z M64.33,45.63c-0.02,0.11-0.04,0.23-0.04,0.35c0,1.05,0.85,1.9,1.9,1.9c1.05,0,1.9-0.85,1.9-1.9c0-0.24-0.04-0.46-0.12-0.67 c0.98,0.07,1.96,0.27,2.96,0.59c0.49,0.16,1-0.17,1.13-0.72c0.14-0.55-0.14-1.13-0.63-1.29c-1.44-0.47-2.88-0.7-4.32-0.7 c-1.43,0-2.86,0.24-4.26,0.71c-0.48,0.16-0.77,0.74-0.63,1.29c0.14,0.55,0.65,0.87,1.13,0.71C63.68,45.81,64,45.71,64.33,45.63 L64.33,45.63L64.33,45.63z M73.3,39.13c0.44,0.36,0.51,1.02,0.14,1.46c-0.37,0.44-1.02,0.51-1.46,0.14 c-1.44-1.19-4.4-0.66-6.93-0.2c-1.37,0.25-2.63,0.47-3.65,0.44c-0.57-0.02-1.02-0.5-1-1.07c0.02-0.57,0.5-1.02,1.07-1 c0.8,0.03,1.96-0.18,3.2-0.41C67.65,37.95,71.12,37.33,73.3,39.13L73.3,39.13L73.3,39.13z M38.03,40.94 c-0.44,0.37-1.1,0.3-1.46-0.14c-0.37-0.44-0.3-1.1,0.14-1.46c2.18-1.8,5.64-1.18,8.62-0.64c1.25,0.22,2.41,0.43,3.2,0.41 c0.57-0.02,1.05,0.43,1.07,1c0.02,0.57-0.43,1.05-1,1.07c-1.01,0.04-2.27-0.19-3.65-0.44C42.43,40.28,39.47,39.75,38.03,40.94 L38.03,40.94L38.03,40.94z M29.2,41.98c0.17-0.29,0.54-0.39,0.84-0.22c0.29,0.17,0.39,0.54,0.22,0.84 c-0.21,0.35-0.32,0.7-0.33,1.03c-0.01,0.32,0.09,0.64,0.31,0.97c0.19,0.28,0.12,0.66-0.17,0.85c-0.28,0.19-0.66,0.12-0.85-0.16 c-0.38-0.55-0.54-1.11-0.52-1.68C28.73,43.04,28.9,42.5,29.2,41.98L29.2,41.98L29.2,41.98z M79.55,42.58 c-0.17-0.29-0.07-0.67,0.22-0.84c0.29-0.17,0.67-0.06,0.84,0.22c0.3,0.52,0.48,1.07,0.5,1.61c0.01,0.57-0.15,1.13-0.52,1.68 c-0.19,0.28-0.57,0.35-0.85,0.17c-0.28-0.19-0.35-0.57-0.17-0.85c0.22-0.33,0.32-0.65,0.31-0.97 C79.88,43.29,79.75,42.94,79.55,42.58L79.55,42.58L79.55,42.58z M81.46,36.62l-3.13,1.96l-1.29-8.79 c-6.52,4.06-13.96,5.88-22.06,6.08c-7.75-0.06-15.19-1.76-22.11-6.11l-1.41,8.51l-2.77-1.56c-0.25,0.27-0.64,0.4-1.01,0.3 c-0.53-0.14-0.89,0.04-1.11,0.39c-0.47,0.78-0.58,2.19-0.39,3.78c0.19,1.68,0.7,3.49,1.44,4.95c0.85,1.68,1.94,2.85,3.04,2.54l0,0 c0.52-0.15,1.08,0.13,1.26,0.66c0.32,0.94,0.57,1.65,0.8,2.34c1.37,4.09,2.43,7.24,4.84,10.06c2.22,2.6,5.04,4.64,8.01,6.08 c3.26,1.58,6.68,2.43,9.66,2.48c3.15,0.07,6.72-0.73,10.09-2.35c3.07-1.48,5.96-3.64,8.19-6.46c1.93-2.44,2.72-5.11,3.72-8.49 c0.26-0.87,0.53-1.8,0.88-2.89c0.12-0.54,0.64-0.89,1.19-0.79c1.31,0.23,2.68-1.74,3.62-4.15c0.57-1.44,0.95-3.03,1.08-4.46 c0.12-1.33,0.02-2.49-0.35-3.17c-0.2-0.37-0.55-0.54-1.07-0.43l0,0c-0.04,0.01-0.08,0.01-0.12,0.02 C82.03,37.16,81.66,36.95,81.46,36.62L81.46,36.62L81.46,36.62z"/></g></svg>