<?xml version="1.0" encoding="utf-8"?>
<!-- Generator: Adobe Illustrator 18.0.0, SVG Export Plug-In . SVG Version: 6.00 Build 0)  -->
<!DOCTYPE svg PUBLIC "-//W3C//DTD SVG 1.1//EN" "http://www.w3.org/Graphics/SVG/1.1/DTD/svg11.dtd">
<svg version="1.1" id="Layer_1" xmlns="http://www.w3.org/2000/svg" xmlns:xlink="http://www.w3.org/1999/xlink" x="0px" y="0px"
	 viewBox="0 0 64 64" enable-background="new 0 0 64 64" xml:space="preserve">
<g id="XMLID_15_">
	<g>
		<g>
			<g>
				<polygon fill="#F76B6B" points="26,43.5 26,39 20,39 32,26 44,39 38,39 38,43.5 				"/>
			</g>
		</g>
		<g>
			<g>
				<path fill="#DFE4EA" d="M32,26L20,39h6v4.5H12.4C6.1,43.5,1,38.4,1,32.2c0-5.5,4.1-10.1,9.3-11.1c0-0.2,0-0.5,0-0.7
					c0-4.8,3.9-8.7,8.8-8.7c1,0,2,0.2,2.9,0.5c2.4-5.1,7.6-8.7,13.6-8.7c8.3,0,15,6.7,15,14.9c0,0.9-0.1,1.7-0.2,2.6h1.3
					C57.9,20.9,63,26,63,32.2c0,6.2-5.1,11.3-11.4,11.3H38V39h6L32,26z"/>
			</g>
		</g>
		<g>
			<g>
				<rect x="26" y="43.5" fill="#F76B6B" width="12" height="11.5"/>
			</g>
		</g>
	</g>
	<g>
		<g>
			<g>
				<path fill="#2C2C3D" d="M51.6,44.5H38c-0.6,0-1-0.4-1-1s0.4-1,1-1h13.6c5.7,0,10.4-4.6,10.4-10.3c0-5.7-4.7-10.3-10.4-10.3h-1.3
					c-0.3,0-0.6-0.1-0.8-0.4c-0.2-0.2-0.3-0.5-0.2-0.8c0.2-0.8,0.2-1.6,0.2-2.4c0-7.6-6.3-13.9-14-13.9c-5.5,0-10.4,3.2-12.7,8.1
					c-0.2,0.5-0.8,0.7-1.2,0.5c-0.8-0.3-1.7-0.4-2.6-0.4c-4.3,0-7.8,3.5-7.8,7.7c0,0.2,0,0.4,0,0.6c0,0.5-0.3,1-0.8,1.1
					C5.6,23,2,27.3,2,32.2c0,5.7,4.7,10.3,10.4,10.3H26c0.6,0,1,0.4,1,1s-0.4,1-1,1H12.4C5.5,44.5,0,39,0,32.2
					c0-5.6,3.9-10.5,9.3-11.9c0-5.3,4.4-9.6,9.8-9.6c0.8,0,1.6,0.1,2.4,0.3c2.8-5.2,8.2-8.5,14.2-8.5c8.8,0,16,7.1,16,15.9
					c0,0.5,0,1-0.1,1.6h0.1c6.8,0,12.4,5.5,12.4,12.3C64,39,58.5,44.5,51.6,44.5z"/>
			</g>
		</g>
		<g>
			<g>
				<path fill="#2C2C3D" d="M38,56H26c-0.6,0-1-0.4-1-1V40h-5c-0.4,0-0.8-0.2-0.9-0.6c-0.2-0.4-0.1-0.8,0.2-1.1l12-13
					c0.4-0.4,1.1-0.4,1.5,0l12,13c0.3,0.3,0.3,0.7,0.2,1.1C44.8,39.8,44.4,40,44,40h-5v15C39,55.6,38.6,56,38,56z M27,54h10V39
					c0-0.6,0.4-1,1-1h3.7L32,27.5L22.3,38H26c0.6,0,1,0.4,1,1V54z"/>
			</g>
		</g>
	</g>
</g>
</svg>
